<svg width="80" height="80" viewBox="0 0 80 80" fill="none" xmlns="http://www.w3.org/2000/svg">
<path fill-rule="evenodd" clip-rule="evenodd" d="M43.6365 3.63637V7.45456C42.4365 7.34547 41.2365 7.27274 40.0001 7.27274C38.7637 7.27274 37.5637 7.34547 36.3637 7.45456V3.63637C36.3637 2.67195 36.7468 1.74702 37.4288 1.06507C38.1107 0.383117 39.0357 0 40.0001 0C40.9645 0 41.8894 0.383117 42.5714 1.06507C43.2533 1.74702 43.6365 2.67195 43.6365 3.63637ZM3.38188 31.1274C7.4448 22.0098 14.737 14.7175 23.8547 10.6546C21.2494 8.46155 17.9509 7.26328 14.5455 7.2728C10.6878 7.2728 6.98814 8.80527 4.26033 11.5331C1.53252 14.2609 5.62859e-05 17.9606 5.62859e-05 21.8183C-0.00946323 25.2237 1.18881 28.5222 3.38188 31.1274ZM76.6181 31.1274C78.8112 28.5222 80.0095 25.2237 80 21.8183C80 17.9606 78.4675 14.2609 75.7397 11.5331C73.0119 8.80527 69.3122 7.2728 65.4545 7.2728C62.0491 7.26328 58.7506 8.46155 56.1454 10.6546C65.263 14.7175 72.5552 22.0098 76.6181 31.1274ZM21.8178 20.061C27.1997 16.4649 33.5272 14.5455 40.0001 14.5455C48.6799 14.5455 57.0043 17.9935 63.1418 24.1311C69.2794 30.2687 72.7274 38.593 72.7274 47.2728C72.7274 53.7457 70.808 60.0732 67.2119 65.4552C63.6158 70.8371 58.5045 75.0319 52.5243 77.5089C46.5442 79.986 39.9638 80.6341 33.6153 79.3713C27.2668 78.1085 21.4354 74.9916 16.8584 70.4146C12.2814 65.8375 9.1644 60.0061 7.9016 53.6576C6.63881 47.3091 7.28692 40.7288 9.76398 34.7486C12.241 28.7685 16.4358 23.6572 21.8178 20.061ZM42.571 49.8437C43.253 49.1619 43.6363 48.2372 43.6365 47.2728V25.4546C43.6365 24.4902 43.2534 23.5652 42.5714 22.8833C41.8895 22.2013 40.9645 21.8182 40.0001 21.8182C39.0357 21.8182 38.1107 22.2013 37.4288 22.8833C36.7468 23.5652 36.3637 24.4902 36.3637 25.4546V45.7674L26.5201 55.611C25.8577 56.2969 25.4912 57.2154 25.4994 58.1689C25.5077 59.1223 25.8902 60.0343 26.5644 60.7086C27.2386 61.3828 28.1506 61.7652 29.1041 61.7735C30.0575 61.7818 30.9761 61.4153 31.6619 60.7529L42.571 49.8437Z" fill="#D96581"/>
</svg>
