<svg width="68" height="80" viewBox="0 0 68 80" fill="none" xmlns="http://www.w3.org/2000/svg">
<path fill-rule="evenodd" clip-rule="evenodd" d="M41.7482 0H25.4318C24.1652 0 23.1279 1.01727 23.1279 2.3039V4.20565C23.1279 5.49102 24.1652 6.52834 25.4318 6.52834H26.2386V7.87134C26.2398 9.8019 27.4588 9.96226 28.0702 9.92092L28.1473 9.90968L28.1474 9.90966C28.2274 9.89797 28.3099 9.88591 28.3959 9.87457C28.3964 9.87457 28.3999 9.87379 28.4034 9.87294L28.4122 9.87081H28.4109C30.5833 9.57389 34.1801 9.28951 38.3055 9.81443L38.308 9.81067C38.308 9.81067 40.9502 10.3005 40.9427 7.87009V6.52709H41.7495C43.0173 6.52709 44.0534 5.49102 44.0534 4.2044V2.3039C44.0521 1.01853 43.0148 0 41.7482 0ZM59.1711 19.9244C59.1711 19.9244 60.4402 21.201 61.3346 19.9269L63.0422 17.4802C63.6385 16.6195 62.8681 16.0244 62.7892 15.9656L52.4348 8.73065H52.4323C51.7946 8.28716 51.3711 8.55651 51.1494 8.80582L50.964 9.07267L49.3867 11.3302C49.3792 11.339 48.4972 12.7321 49.9079 13.4687V13.47C51.9249 14.4622 55.6244 16.5544 59.1686 19.9319L59.1711 19.9244ZM0 46.4099C0 27.856 15.0386 12.8161 33.5901 12.8161C52.1428 12.8161 67.1801 27.856 67.1801 46.4099C67.1801 64.9589 52.1428 80 33.5901 80C15.0386 80 0 64.9601 0 46.4099ZM33.5901 44.6335C33.6001 45.0294 33.768 46.4024 35.7411 46.3999C39.17 46.3861 46.7808 46.3711 58.8102 46.4049C60.2096 46.3962 60.5265 45.5818 60.5791 45.0231C58.7112 24.9269 43.7615 20.4945 36.9463 19.5374C36.8373 19.5286 36.6958 19.5086 36.5454 19.4835C36.5258 19.481 36.5069 19.4787 36.4884 19.4764C36.4609 19.473 36.4341 19.4697 36.4064 19.466C34.0674 19.0726 33.6477 20.5947 33.5901 21.4028V44.6335Z" fill="#D96581"/>
</svg>
