<svg width="73" height="80" viewBox="0 0 73 80" fill="none" xmlns="http://www.w3.org/2000/svg">
<path d="M65.4538 38.9002V35.2647C62.1512 36.4325 58.6158 36.7876 55.1469 36.3002C51.678 35.8128 48.3774 34.497 45.5245 32.4643C42.6716 30.4316 40.3502 27.7417 38.7566 24.6221C37.1631 21.5026 36.3443 18.0451 36.3695 14.5421C36.3747 9.38979 38.2035 4.40558 41.532 0.47262C39.8278 0.167813 38.1007 0.00969363 36.3695 0C28.6559 0 21.2582 3.06423 15.8038 8.51859C10.3495 13.9729 7.28523 21.3707 7.28523 29.0843V38.9002L2.01371 46.7893C0.808949 48.5972 0.117702 50.6983 0.0137454 52.8683C-0.0902108 55.0383 0.397026 57.1959 1.42345 59.1106C2.44988 61.0253 3.97696 62.6255 5.84172 63.7401C7.70648 64.8548 9.83892 65.4422 12.0114 65.4396H18.5554C19.3898 69.5488 21.6192 73.2432 24.8657 75.8968C28.1123 78.5504 32.1764 80 36.3695 80C40.5626 80 44.6267 78.5504 47.8733 75.8968C51.1199 73.2432 53.3492 69.5488 54.1836 65.4396H60.7276C63.9095 65.4396 66.961 64.1756 69.211 61.9257C71.4609 59.6758 72.7249 56.6242 72.7249 53.4424C72.7385 51.0693 72.0283 48.7484 70.689 46.7893L65.4538 38.9002ZM36.3695 72.7107C34.1131 72.7119 31.9119 72.0132 30.0692 70.711C28.2265 69.4087 26.8331 67.567 26.081 65.4396H46.6581C45.9059 67.567 44.5125 69.4087 42.6698 70.711C40.8271 72.0132 38.6259 72.7119 36.3695 72.7107ZM72.7249 14.5421C72.7249 17.4183 71.872 20.2299 70.2741 22.6213C68.6762 25.0128 66.405 26.8767 63.7478 27.9773C61.0905 29.078 58.1666 29.366 55.3457 28.8049C52.5248 28.2437 49.9336 26.8587 47.8999 24.825C45.8661 22.7912 44.4811 20.2001 43.92 17.3792C43.3589 14.5583 43.6469 11.6343 44.7475 8.9771C45.8482 6.31988 47.7121 4.0487 50.1035 2.45079C52.495 0.852882 55.3066 0 58.1827 0C62.0395 0 65.7384 1.53211 68.4656 4.25929C71.1928 6.98647 72.7249 10.6853 72.7249 14.5421Z" fill="#D96581"/>
</svg>
