<svg width="80" height="80" viewBox="0 0 80 80" fill="none" xmlns="http://www.w3.org/2000/svg">
<path d="M78.0754 7.27548H66.0191C66.4367 5.23919 66.0336 3.12291 64.8933 1.38479C64.1017 0.472097 62.9396 -0.0333387 61.734 0.00302361C56.0036 0.839356 50.6546 3.37381 46.3731 7.27548H33.9537C29.5379 3.31563 24.0327 0.781176 18.1571 0.00302361C16.9369 -0.0442473 15.764 0.464824 14.9614 1.38479C13.8357 3.12654 13.4435 5.24646 13.872 7.27548H1.81571C0.813436 7.27548 0 8.08999 0 9.09359V23.6385C0 24.6421 0.813436 25.4566 1.81571 25.4566H26.473L24.512 29.0928H5.44712C4.44485 29.0928 3.63141 29.9073 3.63141 30.9109V78.1819C3.63141 79.1855 4.44485 80 5.44712 80H34.4984C35.5007 80 36.3141 79.1855 36.3141 78.1819V31.9291L39.9455 24.6566L43.5769 34.1835V78.1819C43.5769 79.1855 44.3904 80 45.3927 80H74.4439C75.4462 80 76.2597 79.1855 76.2597 78.1819V30.9109C76.2597 29.9073 75.4462 29.0928 74.4439 29.0928H54.217L52.7644 25.4566H78.1843C79.1866 25.4566 80 24.6421 80 23.6385V9.09359C80 8.08999 79.1902 7.27548 78.1879 7.27184C78.1516 7.27184 78.1117 7.27184 78.0754 7.27548ZM51.2755 31.5655L49.5325 30.9837C48.581 30.6746 47.557 31.1946 47.2447 32.1473L46.9905 32.8745L42.3786 21.2386C43.2029 20.9295 43.9655 20.475 44.6301 19.8932L47.0994 21.0931L48.3341 24.1839L51.2755 31.5655ZM31.557 33.4199L30.5765 31.7836C30.1407 31.0418 29.2474 30.711 28.434 30.9837L27.3445 31.3473L32.6827 21.4204L35.3336 20.2204C35.9038 20.6786 36.5429 21.0459 37.222 21.3113L31.557 33.4199ZM43.5769 14.5479C43.5769 16.5551 41.9501 18.1842 39.9455 18.1842C37.941 18.1842 36.3141 16.5551 36.3141 14.5479C36.3141 12.5407 37.941 10.9117 39.9455 10.9117C41.9501 10.9117 43.5769 12.5407 43.5769 14.5479ZM62.1698 3.63925C62.7508 4.33013 62.4603 6.91185 62.1698 8.6936V9.2754C62.1698 9.92992 61.9882 10.5481 61.9156 11.1299C61.8865 11.6135 61.8865 12.1007 61.9156 12.5844V13.748C61.9156 15.8206 61.9156 20.1114 60.7898 21.384C59.6641 22.6567 54.0717 20.3295 49.3146 18.1842L46.8089 17.0206C47.4662 15.3624 47.4662 13.5152 46.8089 11.8571C51.6024 7.27548 58.1026 3.63925 61.734 3.63925C61.872 3.58107 62.0318 3.58107 62.1698 3.63925ZM17.7213 3.63925C17.8593 3.58107 18.0191 3.58107 18.1571 3.63925C23.9128 4.65012 29.2147 7.42092 33.3364 11.5662C32.5701 13.3807 32.5701 15.4243 33.3364 17.2387C28.0345 19.6023 20.2996 22.584 19.2465 21.5295C18.1934 20.475 18.1571 15.9661 18.1571 13.8934V12.7298C18.1861 12.2462 18.1861 11.7589 18.1571 11.2753C18.1571 10.6935 18.1571 10.0754 17.9029 9.42085V8.83905C17.4308 6.98458 17.1403 4.43922 17.7213 3.63925Z" fill="#D96581"/>
</svg>
