<svg width="75" height="60" viewBox="0 0 75 60" fill="none" xmlns="http://www.w3.org/2000/svg">
<path d="M33.6229 19.46L23.2909 15.4C22.1336 14.952 21.5549 14.1307 21.5549 12.936C21.5549 11.7787 22.1336 10.976 23.2909 10.528L33.6229 6.468C34.1829 6.244 34.6496 6.244 35.0229 6.468C35.4149 6.692 35.6856 7.01867 35.8349 7.448C35.9843 7.85867 35.9749 8.27867 35.8069 8.708C35.6576 9.13733 35.3216 9.45467 34.7989 9.66L26.1749 12.964L34.7989 16.296C35.3216 16.5013 35.6576 16.8187 35.8069 17.248C35.9749 17.6587 35.9843 18.0787 35.8349 18.508C35.6856 18.9187 35.4149 19.236 35.0229 19.46C34.6496 19.6653 34.1829 19.6653 33.6229 19.46ZM41.032 21C40.2107 21 39.6133 20.8133 39.24 20.44C38.8853 20.048 38.708 19.4787 38.708 18.732C38.708 18.2093 38.82 17.7427 39.044 17.332C39.268 16.9213 39.576 16.52 39.968 16.128L44.868 11.004C45.596 10.2387 46.1093 9.576 46.408 9.016C46.7253 8.43733 46.884 7.868 46.884 7.308C46.884 5.88933 45.9787 5.18 44.168 5.18C43.72 5.18 43.2347 5.24533 42.712 5.376C42.208 5.488 41.676 5.69333 41.116 5.992C40.612 6.23467 40.1547 6.30933 39.744 6.216C39.3333 6.104 38.9973 5.88933 38.736 5.572C38.4747 5.25467 38.3067 4.89067 38.232 4.48C38.176 4.06933 38.2413 3.668 38.428 3.276C38.6147 2.86533 38.9507 2.52933 39.436 2.268C40.2947 1.82 41.1813 1.49333 42.096 1.288C43.0293 1.064 43.9627 0.951999 44.896 0.951999C47.1733 0.951999 48.9093 1.44667 50.104 2.436C51.3173 3.42533 51.924 4.85333 51.924 6.72C51.924 7.91467 51.6533 9.05333 51.112 10.136C50.5707 11.2187 49.6653 12.3853 48.396 13.636L45.204 16.828H50.776C52.1947 16.828 52.904 17.5187 52.904 18.9C52.904 20.3 52.1947 21 50.776 21H41.032ZM3.10359 59.252C2.30093 59.252 1.68493 59.0373 1.25559 58.608C0.844927 58.1787 0.639594 57.5533 0.639594 56.732V41.528C0.639594 39.848 1.46093 39.008 3.10359 39.008C3.90626 39.008 4.52226 39.2227 4.95159 39.652C5.39959 40.0813 5.62359 40.7067 5.62359 41.528V46.932C6.61293 45.588 8.05026 44.916 9.93559 44.916C11.5783 44.916 12.7916 45.4013 13.5756 46.372C14.3783 47.3427 14.7796 48.836 14.7796 50.852V56.732C14.7796 57.5533 14.5649 58.1787 14.1356 58.608C13.7063 59.0373 13.0903 59.252 12.2876 59.252C11.4849 59.252 10.8689 59.0373 10.4396 58.608C10.0103 58.1787 9.79559 57.5533 9.79559 56.732V51.048C9.79559 50.208 9.64626 49.6107 9.34759 49.256C9.06759 48.9013 8.64759 48.724 8.08759 48.724C7.34093 48.724 6.74359 48.9667 6.29559 49.452C5.84759 49.9187 5.62359 50.5533 5.62359 51.356V56.732C5.62359 58.412 4.78359 59.252 3.10359 59.252ZM24.5921 59.308C23.0614 59.308 21.7267 59.0187 20.5881 58.44C19.4494 57.8613 18.5627 57.0307 17.9281 55.948C17.2934 54.8653 16.9761 53.5867 16.9761 52.112C16.9761 50.6187 17.2934 49.34 17.9281 48.276C18.5627 47.1933 19.4494 46.3627 20.5881 45.784C21.7267 45.2053 23.0614 44.916 24.5921 44.916C26.1227 44.916 27.4574 45.2053 28.5961 45.784C29.7347 46.3627 30.6121 47.1933 31.2281 48.276C31.8627 49.34 32.1801 50.6187 32.1801 52.112C32.1801 53.5867 31.8627 54.8653 31.2281 55.948C30.6121 57.0307 29.7347 57.8613 28.5961 58.44C27.4574 59.0187 26.1227 59.308 24.5921 59.308ZM24.5921 55.64C25.3387 55.64 25.9547 55.36 26.4401 54.8C26.9254 54.24 27.1681 53.344 27.1681 52.112C27.1681 50.8613 26.9254 49.9653 26.4401 49.424C25.9547 48.864 25.3387 48.584 24.5921 48.584C23.8267 48.584 23.2014 48.864 22.7161 49.424C22.2307 49.9653 21.9881 50.8613 21.9881 52.112C21.9881 53.344 22.2307 54.24 22.7161 54.8C23.2014 55.36 23.8267 55.64 24.5921 55.64ZM37.0118 59.252C35.3131 59.252 34.4638 58.412 34.4638 56.732V47.464C34.4638 45.8027 35.2758 44.972 36.8998 44.972C37.6651 44.972 38.2531 45.1867 38.6638 45.616C39.0931 46.0453 39.3078 46.6613 39.3078 47.464V47.548C39.6251 46.7453 40.1385 46.1107 40.8478 45.644C41.5571 45.1773 42.3971 44.9347 43.3678 44.916C43.9091 44.8973 44.3105 45.0373 44.5718 45.336C44.8518 45.616 45.0011 46.148 45.0198 46.932C45.0198 47.604 44.8798 48.136 44.5998 48.528C44.3198 48.92 43.7878 49.1533 43.0038 49.228L42.3598 49.284C41.3705 49.3773 40.6518 49.6573 40.2038 50.124C39.7558 50.572 39.5318 51.244 39.5318 52.14V56.732C39.5318 58.412 38.6918 59.252 37.0118 59.252ZM51.2557 59.308C50.1917 59.308 49.2491 59.112 48.4277 58.72C47.6251 58.328 46.9904 57.796 46.5237 57.124C46.0757 56.4333 45.8517 55.6493 45.8517 54.772C45.8517 53.7827 46.1131 52.9987 46.6357 52.42C47.1584 51.8227 47.9984 51.4027 49.1557 51.16C50.3131 50.8987 51.8531 50.768 53.7757 50.768H54.8397V50.376C54.8397 49.704 54.6624 49.228 54.3077 48.948C53.9717 48.668 53.3837 48.528 52.5437 48.528C52.0771 48.528 51.5637 48.584 51.0037 48.696C50.4624 48.7893 49.8464 48.9667 49.1557 49.228C48.5397 49.452 48.0264 49.4427 47.6157 49.2C47.2051 48.9573 46.9344 48.612 46.8037 48.164C46.6917 47.6973 46.7384 47.24 46.9437 46.792C47.1677 46.3253 47.5877 45.98 48.2037 45.756C49.0997 45.4387 49.9211 45.224 50.6677 45.112C51.4331 44.9813 52.1331 44.916 52.7677 44.916C55.0637 44.916 56.7624 45.4107 57.8637 46.4C58.9837 47.3893 59.5437 48.948 59.5437 51.076V56.732C59.5437 58.412 58.7784 59.252 57.2477 59.252C55.7917 59.252 55.0171 58.5053 54.9237 57.012C54.6624 57.7213 54.2144 58.2813 53.5797 58.692C52.9451 59.1027 52.1704 59.308 51.2557 59.308ZM52.3757 56.06C53.0664 56.06 53.6451 55.836 54.1117 55.388C54.5971 54.94 54.8397 54.352 54.8397 53.624V53.12H53.7757C52.6744 53.12 51.8624 53.2413 51.3397 53.484C50.8357 53.708 50.5837 54.072 50.5837 54.576C50.5837 55.0053 50.7331 55.36 51.0317 55.64C51.3491 55.92 51.7971 56.06 52.3757 56.06ZM67.8698 59.308C67.0298 59.308 66.1898 59.2427 65.3498 59.112C64.5098 58.9813 63.7444 58.7667 63.0538 58.468C62.4751 58.244 62.0924 57.9173 61.9058 57.488C61.7378 57.0587 61.7191 56.6293 61.8498 56.2C61.9991 55.7707 62.2604 55.444 62.6338 55.22C63.0071 54.996 63.4551 54.9773 63.9778 55.164C64.7431 55.444 65.4431 55.6493 66.0778 55.78C66.7124 55.892 67.3191 55.948 67.8978 55.948C68.5884 55.948 69.0831 55.8547 69.3818 55.668C69.6804 55.4627 69.8298 55.2013 69.8298 54.884C69.8298 54.604 69.7271 54.3987 69.5218 54.268C69.3351 54.1187 69.0644 54.0067 68.7098 53.932L65.6018 53.428C64.4444 53.2413 63.5484 52.8213 62.9138 52.168C62.2791 51.5147 61.9618 50.6653 61.9618 49.62C61.9618 48.6493 62.2324 47.8187 62.7738 47.128C63.3151 46.4187 64.0711 45.8773 65.0418 45.504C66.0124 45.112 67.1231 44.916 68.3738 44.916C69.2138 44.916 69.9791 44.9813 70.6698 45.112C71.3604 45.2427 72.0324 45.4573 72.6858 45.756C73.1898 45.9613 73.5071 46.2787 73.6378 46.708C73.7871 47.1373 73.7778 47.5667 73.6098 47.996C73.4604 48.4067 73.1898 48.724 72.7978 48.948C72.4244 49.1533 71.9671 49.1533 71.4258 48.948C70.8098 48.7053 70.2591 48.528 69.7738 48.416C69.3071 48.304 68.8684 48.248 68.4578 48.248C67.6924 48.248 67.1511 48.36 66.8338 48.584C66.5164 48.7893 66.3578 49.0413 66.3578 49.34C66.3578 49.844 66.7031 50.152 67.3938 50.264L70.5018 50.796C71.6964 50.9827 72.6111 51.3933 73.2458 52.028C73.8991 52.644 74.2258 53.484 74.2258 54.548C74.2258 56.06 73.6471 57.236 72.4898 58.076C71.3324 58.8973 69.7924 59.308 67.8698 59.308Z" fill="#D96581"/>
</svg>
