<svg width="80" height="64" viewBox="0 0 80 64" fill="none" xmlns="http://www.w3.org/2000/svg">
<path fill-rule="evenodd" clip-rule="evenodd" d="M77.3855 23.876C76.0843 21.111 74.3603 18.6063 72.246 16.4269C71.2376 15.3535 70.0991 14.3776 68.9281 13.4994L71.0099 10.7344C71.5303 10.0188 71.4002 9.01042 70.6846 8.48996C69.969 7.9695 68.9606 8.09962 68.4401 8.81524L66.2282 11.7428C64.7644 10.8645 63.203 10.1489 61.6091 9.5634C60.2104 9.07547 58.7791 8.68513 57.3154 8.39237C56.372 8.22973 55.3962 8.09962 54.4528 8.03456V3.1878H57.6732C58.5514 3.1878 59.2671 2.47217 59.2671 1.5939C59.2671 0.715629 58.5514 0 57.6732 0H48.0122C47.1339 0 46.4183 0.715629 46.4183 1.5939C46.4183 2.47217 47.1339 3.1878 48.0122 3.1878H51.2325V7.90444C47.5243 8.03456 43.8485 8.91283 40.4655 10.4742C37.7006 11.7753 35.1959 13.4668 32.984 15.5812C29.8938 18.5088 27.5192 22.1845 26.0554 26.1855C25.5349 27.5842 25.1446 29.0805 24.8518 30.5769C24.5591 32.0732 24.429 33.5695 24.3639 35.0658C24.2663 39.3596 25.1771 43.6533 27.0312 47.5568C28.3324 50.2892 30.0239 52.7613 32.1382 54.9408C35.0983 58.031 38.7741 60.4056 42.7751 61.8368C44.1738 62.3248 45.6051 62.7151 47.0689 63.0079C48.5326 63.2681 49.9964 63.4307 51.4927 63.4633H52.2084C56.2419 63.4633 60.2755 62.585 63.9187 60.861C66.6511 59.5924 69.1558 57.9009 71.3352 55.819C74.4579 52.8589 76.865 49.1832 78.3288 45.1497C78.8493 43.7509 79.2396 42.2546 79.4998 40.7908C79.7926 39.2945 79.9552 37.7657 79.9878 36.2694C80.1179 32.0081 79.2071 27.7143 77.3855 23.876ZM76.3771 40.1728C76.1169 41.5065 75.7916 42.7751 75.3362 44.0437C74.035 47.5893 71.9207 50.8747 69.1558 53.477C67.2366 55.2986 65.0246 56.8274 62.585 57.9334C59.1695 59.5273 55.3311 60.3405 51.6229 60.2104C50.3217 60.1779 49.0206 60.0478 47.7194 59.7875C46.4183 59.5598 45.1497 59.202 43.9136 58.7791C40.368 57.5105 37.1151 55.3962 34.5128 52.6638C32.6587 50.7446 31.1298 48.5326 29.9913 46.1255C28.3649 42.71 27.5517 38.8716 27.6493 35.0983C27.6818 33.7647 27.8119 32.431 28.0722 31.1298C28.3324 29.7962 28.6902 28.495 29.1131 27.2589C30.3817 23.7133 32.4961 20.493 35.2285 17.8907C37.1802 16.0366 39.3921 14.5077 41.8643 13.3692C45.0846 11.8729 48.6628 11.0922 52.2084 11.0922H52.8264C54.1276 11.1248 55.4287 11.2549 56.7298 11.5151C58.031 11.7428 59.2996 12.1006 60.5357 12.556C64.0813 13.8246 67.3342 15.9065 69.9364 18.6389C71.7906 20.5906 73.3194 22.8025 74.4904 25.2422C76.0843 28.6577 76.8976 32.431 76.8 36.2043C76.7674 37.5055 76.6373 38.8716 76.3771 40.1728ZM18.8991 24.6567H1.5939C0.715629 24.6567 0 25.3723 0 26.2506C0 27.1288 0.715629 27.8445 1.5939 27.8445H18.8991C19.7774 27.8445 20.493 27.1288 20.493 26.2506C20.493 25.3723 19.7774 24.6567 18.8991 24.6567ZM18.8991 34.0574H10.9296C10.0513 34.0574 9.3357 34.773 9.3357 35.6513C9.3357 36.5296 10.0513 37.2452 10.9296 37.2452H18.8991C19.7774 37.2452 20.493 36.5296 20.493 35.6513C20.493 34.773 19.7774 34.0574 18.8991 34.0574ZM5.75756 43.4582H18.8991C19.7774 43.4582 20.493 44.1738 20.493 45.0521C20.493 45.9303 19.7774 46.646 18.8991 46.646H5.75756C4.87929 46.646 4.16366 45.9303 4.16366 45.0521C4.16366 44.1738 4.87929 43.4582 5.75756 43.4582ZM55.2986 30.7395L62.1621 24.5265C62.8452 23.941 63.8536 24.0061 64.5042 24.6241C65.0897 25.2747 65.0246 26.3156 64.3741 26.9011L57.478 33.1141C57.478 33.1303 57.4861 33.1385 57.4943 33.1466C57.5024 33.1547 57.5105 33.1629 57.5105 33.1791C57.9009 33.9923 58.096 34.9031 58.0635 35.7814C58.0635 36.1067 58.031 36.3995 57.9659 36.7247C57.9009 37.05 57.8033 37.3428 57.7057 37.6355C57.3804 38.4488 56.8925 39.2294 56.2419 39.8475C55.7865 40.2704 55.2335 40.6282 54.6805 40.8884C53.9324 41.2462 53.0866 41.4414 52.2409 41.4414H52.0783C51.7855 41.4414 51.4602 41.4089 51.1675 41.3438C50.8747 41.3113 50.582 41.2137 50.2893 41.1161L50.2892 41.1161C49.476 40.8233 48.6953 40.3354 48.0772 39.6848C47.6218 39.2294 47.264 38.7415 47.0038 38.156C46.6134 37.3428 46.4183 36.4645 46.4508 35.5537C46.4508 35.2284 46.4833 34.9357 46.5484 34.6104C46.6135 34.2851 46.711 33.9923 46.8086 33.6996C47.1014 32.8538 47.5893 32.1057 48.2399 31.4876C48.6953 31.0322 49.2157 30.6744 49.8013 30.4142C50.6145 30.0239 51.5253 29.8287 52.4035 29.8612C52.6963 29.8612 52.9891 29.8937 53.3143 29.9588C53.6071 29.9913 53.8999 30.0889 54.1926 30.1865C54.583 30.3491 54.9408 30.5118 55.2986 30.7395ZM54.7293 36.3507C54.7456 36.2775 54.7619 36.2043 54.7781 36.1392C54.7781 36.098 54.7814 36.0536 54.7848 36.0069C54.7922 35.9061 54.8004 35.795 54.7781 35.6838C54.8106 35.2935 54.7131 34.9031 54.5504 34.5453C54.4203 34.3176 54.2577 34.0574 54.0625 33.8622C53.8023 33.5695 53.477 33.3418 53.0866 33.2117L52.6963 33.1141C52.6104 33.1141 52.5337 33.105 52.4611 33.0965C52.3963 33.0888 52.3349 33.0815 52.2734 33.0815H52.2084C51.8506 33.0815 51.4927 33.1466 51.1349 33.3092C50.8747 33.4394 50.647 33.602 50.4518 33.7972C50.1591 34.0574 49.9314 34.4152 49.8013 34.773C49.785 34.8381 49.7687 34.9113 49.7525 34.9845C49.7362 35.0577 49.7199 35.1308 49.7037 35.1959C49.7037 35.261 49.6955 35.3342 49.6874 35.4073C49.6793 35.4805 49.6711 35.5537 49.6711 35.6188C49.6711 36.0091 49.7687 36.3995 49.9314 36.7573C50.0615 37.0175 50.2241 37.2452 50.4193 37.4404C50.6795 37.7331 51.0373 37.9608 51.3952 38.091L51.7855 38.1885C51.8505 38.1885 51.9237 38.1967 51.9969 38.2048C52.0701 38.2129 52.1433 38.2211 52.2084 38.2211C52.5987 38.2211 52.9891 38.156 53.3469 37.9934C53.6071 37.8958 53.8348 37.7331 54.03 37.538C54.3227 37.2777 54.5504 36.9199 54.6805 36.5621C54.6968 36.497 54.7131 36.4239 54.7293 36.3507Z" fill="#D96581"/>
</svg>
