<svg width="80" height="80" viewBox="0 0 80 80" fill="none" xmlns="http://www.w3.org/2000/svg">
<path fill-rule="evenodd" clip-rule="evenodd" d="M40.2328 0.646878C46.7631 1.94585 52.7617 5.15213 57.4698 9.86027C63.7832 16.1737 67.33 24.7365 67.33 33.6651C67.33 42.5936 63.7832 51.1564 57.4698 57.4699C52.7617 62.178 46.7631 65.3843 40.2328 66.6833C33.7024 67.9822 26.9335 67.3156 20.782 64.7675C14.6305 62.2195 9.37274 57.9046 5.67358 52.3684C1.97442 46.8322 0 40.3234 0 33.6651C0 27.0068 1.97442 20.498 5.67358 14.9618C9.37274 9.42558 14.6305 5.11065 20.782 2.56262C26.9335 0.0145881 33.7024 -0.652094 40.2328 0.646878ZM21.4261 51.6684C25.0492 54.0893 29.3087 55.3814 33.6662 55.3814C36.5594 55.3814 39.4243 54.8116 42.0973 53.7044C44.7703 52.5972 47.199 50.9743 49.2449 48.9285C51.2907 46.8827 52.9135 44.454 54.0207 41.781C55.1279 39.108 55.6978 36.2431 55.6978 33.3498C55.6978 28.9924 54.4056 24.7328 51.9848 21.1097C49.5639 17.4867 46.123 14.6628 42.0973 12.9953C38.0716 11.3278 33.6417 10.8915 29.368 11.7416C25.0943 12.5917 21.1687 14.69 18.0875 17.7712C15.0063 20.8523 12.908 24.778 12.0579 29.0517C11.2078 33.3254 11.6441 37.7552 13.3117 41.781C14.9792 45.8067 17.803 49.2476 21.4261 51.6684ZM21.5022 23.717C21.5022 22.4229 22.561 21.3641 23.8551 21.3641H42.6787C43.3027 21.3641 43.9012 21.6119 44.3424 22.0532C44.7837 22.4945 45.0316 23.093 45.0316 23.717V26.0699H21.5022V23.717ZM22.6787 27.2464H43.8551V42.5405C43.8551 43.1646 43.6072 43.7631 43.166 44.2043C42.7247 44.6456 42.1262 44.8935 41.5022 44.8935H25.0316C24.4076 44.8935 23.8091 44.6456 23.3678 44.2043C22.9266 43.7631 22.6787 43.1646 22.6787 42.5405V27.2464ZM29.7375 29.5993V31.9523H36.7963V29.5993H29.7375ZM78.3498 70.4555L63.7191 55.8247C62.6096 57.3282 61.3891 58.7466 60.0679 60.068C58.747 61.3891 57.3301 62.6108 55.829 63.723L70.4547 78.3491C70.9723 78.8709 71.5878 79.2853 72.2659 79.5686C72.944 79.852 73.6714 79.9986 74.4063 80.0001C75.1413 80.0016 75.8693 79.858 76.5485 79.5775C77.2278 79.297 77.845 78.8851 78.3647 78.3655C78.8845 77.8458 79.2964 77.2287 79.5771 76.5495C79.8577 75.8702 80.0014 75.1423 80.0001 74.4073C79.9987 73.6724 79.8522 72.945 79.569 72.2668C79.2858 71.5887 78.8714 70.9731 78.3498 70.4555Z" fill="#D96581"/>
</svg>
