<svg width="80" height="80" viewBox="0 0 80 80" fill="none" xmlns="http://www.w3.org/2000/svg">
<path fill-rule="evenodd" clip-rule="evenodd" d="M60 6.66667H63.3333C67.752 6.67196 71.9882 8.42961 75.1126 11.5541C78.2371 14.6785 79.9947 18.9147 80 23.3333V26.6667H7.62939e-06V23.3333C0.00530049 18.9147 1.76295 14.6785 4.88741 11.5541C8.01187 8.42961 12.248 6.67196 16.6667 6.66667H20V3.33333C20 2.44928 20.3512 1.60143 20.9763 0.976311C21.6014 0.351189 22.4493 0 23.3333 0C24.2174 0 25.0652 0.351189 25.6904 0.976311C26.3155 1.60143 26.6667 2.44928 26.6667 3.33333V6.66667H53.3333V3.33333C53.3333 2.44928 53.6845 1.60143 54.3096 0.976311C54.9348 0.351189 55.7826 0 56.6667 0C57.5507 0 58.3986 0.351189 59.0237 0.976311C59.6488 1.60143 60 2.44928 60 3.33333V6.66667ZM4.8874 75.1126C1.76294 71.9881 0.00529286 67.752 0 63.3333V33.3333H80V63.3333C79.9947 67.752 78.2371 71.9881 75.1126 75.1126C71.9881 78.2371 67.752 79.9947 63.3333 80H16.6667C12.248 79.9947 8.01186 78.2371 4.8874 75.1126ZM59.4445 49.176C58.6223 48.6266 57.6556 48.3333 56.6667 48.3333C55.3406 48.3333 54.0688 48.8601 53.1311 49.7978C52.1934 50.7355 51.6667 52.0073 51.6667 53.3333C51.6667 54.3222 51.9599 55.2889 52.5093 56.1112C53.0587 56.9334 53.8396 57.5743 54.7533 57.9527C55.6669 58.3312 56.6722 58.4302 57.6421 58.2373C58.612 58.0443 59.5029 57.5681 60.2022 56.8689C60.9015 56.1696 61.3777 55.2787 61.5706 54.3088C61.7635 53.3389 61.6645 52.3335 61.2861 51.4199C60.9076 50.5063 60.2668 49.7254 59.4445 49.176ZM42.7778 49.176C41.9556 48.6266 40.9889 48.3333 40 48.3333C38.6739 48.3333 37.4021 48.8601 36.4645 49.7978C35.5268 50.7355 35 52.0073 35 53.3333C35 54.3222 35.2932 55.2889 35.8427 56.1112C36.3921 56.9334 37.173 57.5743 38.0866 57.9527C39.0002 58.3312 40.0055 58.4302 40.9755 58.2373C41.9454 58.0443 42.8363 57.5681 43.5355 56.8689C44.2348 56.1696 44.711 55.2787 44.9039 54.3088C45.0969 53.3389 44.9978 52.3335 44.6194 51.4199C44.241 50.5063 43.6001 49.7254 42.7778 49.176ZM26.1112 49.176C25.2889 48.6266 24.3222 48.3333 23.3333 48.3333C22.0072 48.3333 20.7355 48.8601 19.7978 49.7978C18.8601 50.7355 18.3333 52.0073 18.3333 53.3333C18.3333 54.3222 18.6266 55.2889 19.176 56.1112C19.7254 56.9334 20.5063 57.5743 21.4199 57.9527C22.3335 58.3312 23.3389 58.4302 24.3088 58.2373C25.2787 58.0443 26.1696 57.5681 26.8689 56.8689C27.5681 56.1696 28.0443 55.2787 28.2373 54.3088C28.4302 53.3389 28.3312 52.3335 27.9527 51.4199C27.5743 50.5063 26.9334 49.7254 26.1112 49.176Z" fill="#D96581"/>
</svg>
