<svg width="34" height="34" viewBox="0 0 34 34" fill="none" xmlns="http://www.w3.org/2000/svg">
<path d="M20.5449 18.4167C20.1244 18.4167 19.7134 18.2921 19.3638 18.0586C19.0142 17.8251 18.7417 17.4932 18.5808 17.1049C18.4199 16.7166 18.3778 16.2893 18.4598 15.8771C18.5419 15.4649 18.7443 15.0863 19.0417 14.7891C19.339 14.4919 19.7178 14.2895 20.1301 14.2075C20.5425 14.1255 20.97 14.1676 21.3584 14.3284C21.7469 14.4893 22.0789 14.7616 22.3125 15.1111C22.5461 15.4606 22.6708 15.8714 22.6708 16.2917C22.6708 16.8553 22.4468 17.3958 22.0481 17.7943C21.6494 18.1928 21.1087 18.4167 20.5449 18.4167ZM30.9632 11.7215C30.3942 8.435 28.6805 5.45558 26.1254 3.31043C23.5703 1.16527 20.3385 -0.0073544 17.0017 3.47088e-05C7.22264 3.47088e-05 4.42213 6.62153 2.57261 11.0033C2.19757 12.2431 1.56002 13.3877 0.703241 14.3594C0.447297 14.5086 0.244574 14.7342 0.123572 15.0045C0.00257027 15.2749 -0.0306238 15.5764 0.0286568 15.8665C0.0879373 16.1567 0.236711 16.421 0.454061 16.6223C0.671411 16.8236 0.946406 16.9517 1.24038 16.9887C4.74357 17.2831 8.26692 16.7493 11.5254 15.4304C11.3457 15.8286 11.2931 16.2726 11.3748 16.7018C11.4566 17.131 11.6687 17.5246 11.9823 17.829C12.2959 18.1333 12.6957 18.3337 13.1274 18.4027C13.559 18.4717 14.0014 18.4061 14.3944 18.2147C14.7873 18.0233 15.1117 17.7155 15.3233 17.3332C15.5349 16.9509 15.6235 16.5127 15.577 16.0782C15.5305 15.6438 15.3511 15.2342 15.0633 14.9054C14.7756 14.5765 14.3934 14.3443 13.9688 14.2404C16.7532 12.6812 19.1531 10.519 20.9927 7.91211C21.1095 7.76139 21.1946 7.58867 21.243 7.4043C21.2914 7.21993 21.302 7.02769 21.2743 6.8391C21.2466 6.65051 21.1812 6.46944 21.0818 6.30675C20.9825 6.14405 20.8513 6.00307 20.6961 5.89224C20.541 5.78141 20.3651 5.70302 20.1789 5.66176C19.9927 5.6205 19.8001 5.61722 19.6127 5.65211C19.4252 5.687 19.2467 5.75935 19.0879 5.86482C18.929 5.9703 18.7931 6.10673 18.6883 6.26594C17.0355 8.59189 14.878 10.5142 12.3771 11.889C9.87617 13.2638 7.09663 14.0555 4.24639 14.2049C4.56811 13.5632 4.86715 12.8506 5.18462 12.104C6.92785 7.97303 9.09768 2.83337 17.0017 2.83337C19.802 2.82667 22.5051 3.85889 24.5877 5.73014C26.6702 7.6014 27.984 10.1785 28.2746 12.9625C28.3071 13.2669 28.4373 13.5526 28.6458 13.7768C28.8542 14.0011 29.1298 14.1518 29.4311 14.2064C29.9475 14.3073 30.408 14.5961 30.7237 15.0168C31.0394 15.4375 31.1878 15.9603 31.1402 16.4841C31.0926 17.0079 30.8524 17.4954 30.466 17.8523C30.0796 18.2093 29.5746 18.4104 29.0485 18.4167C28.9286 18.4134 28.8092 18.4006 28.6913 18.3784C28.3608 18.3182 28.0196 18.378 27.7293 18.5471C27.439 18.7163 27.2187 18.9835 27.1082 19.3007C25.81 22.9798 21.4406 26.9167 17.0017 26.9167C12.8917 26.9167 9.06508 23.6824 7.41255 20.4864C7.23965 20.1528 6.94123 19.9015 6.58295 19.7878C6.22467 19.6741 5.83587 19.7073 5.50209 19.8801C5.1683 20.0529 4.91688 20.3512 4.80312 20.7094C4.68936 21.0675 4.72259 21.4561 4.8955 21.7898C6.36436 24.5294 8.60168 26.7805 11.3327 28.2668V32.5833C11.3327 32.9591 11.482 33.3194 11.7478 33.5851C12.0136 33.8507 12.3741 34 12.75 34C13.1258 34 13.4863 33.8507 13.7521 33.5851C14.0179 33.3194 14.1672 32.9591 14.1672 32.5833V29.3788C16.024 29.8775 17.9795 29.8775 19.8363 29.3788V32.5833C19.8363 32.9591 19.9856 33.3194 20.2514 33.5851C20.5172 33.8507 20.8776 34 21.2535 34C21.6294 34 21.9899 33.8507 22.2557 33.5851C22.5215 33.3194 22.6708 32.9591 22.6708 32.5833V28.2682C25.5962 26.6961 27.9451 24.2341 29.3773 21.2387C30.4909 21.1627 31.5464 20.7135 32.3731 19.9637C33.1997 19.2138 33.7492 18.2072 33.9326 17.1065C34.116 16.0059 33.9226 14.8756 33.3838 13.8984C32.8449 12.9212 31.9921 12.1542 30.9632 11.7215Z" fill="#D96581"/>
</svg>
